<svg version="1.1" id="Слой_1" xmlns="http://www.w3.org/2000/svg" xmlns:xlink="http://www.w3.org/1999/xlink" x="0px" y="0px"
     viewBox="0 0 510.22 437.18" style="enable-background:new 0 0 510.22 437.18;" xml:space="preserve">
<style type="text/css">
	.st0{fill:#FF8500;}
</style>
    <g>
	<path class="st0" d="M485.23,35.55c-83.09,65.69-106.14,204.65-145.86,306.24l5.31,16.61l32.68,23.43H256.2l34.81-23.43
		l-47.03-136.51l-45.7,133.53l45.7,43.87H108.21l-5.31-5.75h126.47l-39.85-36.84l50.22-145.67l-8.77-25.34L176.5,345.19l4.25,13.2
		l31.09,23.43H90.41l36.13-23.43L49.23,135.43L9.38,108.59H139.3l-36.4,26.83l60.84,175.48l9.3-25.77l-51.28-146.52l24.18-17.25
		l6.11,3.41L130,140.54l46.5,133.95l56.86-165.9h24.97l69.08,200.61l8.5-24.06L274.8,108.59h7.44l57.12,165.9
		c12.51-36.53,50.32-139.31,48.36-160.15c0-15.19-8.86-27.12-26.57-35.78c33.49-8.28,92.8-29.27,119.83-46L485.23,35.55z
		 M501.17,51.73c-78.31,64.01-104.92,204.29-141.61,299.85l51.01,47.7h-136.3l-6.11-5.75h126.2l-43.04-39.82
		c37.58-98.29,64.46-238.13,143.74-305.6L501.17,51.73z"/>
        <polyline class="st0" points="163.74,310.9 173.04,285.14 121.76,138.62 108.2,150.71 	"/>
        <polyline class="st0" points="90.41,381.82 102.9,393.53 229.37,393.53 176.5,345.19 	"/>
        <polyline class="st0" points="258.33,108.59 274.8,108.59 335.91,285.14 327.41,309.2 	"/>
        <polyline class="st0" points="145.94,121.37 138.43,108.59 152.05,124.78 139.3,108.59 145.94,121.37 121.76,138.62 108.2,150.71
		102.9,135.43 	"/>
        <polyline class="st0" points="256.2,381.82 274.27,399.28 394.36,393.53 377.36,381.82 	"/>
        <polyline class="st0" points="189.52,356.69 188.48,359.6 229.37,393.53 	"/>
        <path class="st0" d="M375.98,344.13"/>
        <polyline class="st0" points="351.5,353.2 339.36,341.78 351.65,353.35 394.36,393.53 369.01,375.6 394.36,393.53 	"/>
        <polygon class="st0" points="330.16,332.96 347.97,387.56 397.94,397.16 331.2,316.21 	"/>
        <path class="st0" d="M344.68,358.39"/>
        <polyline class="st0" points="480.98,32.57 485.23,35.55 501.17,51.73 489.94,62.21 481.32,61.71 459.63,60.45 449.69,59.87 	"/>
        <polyline class="st0" points="450.19,71.22 467.91,77.63 483.34,60.56 455.89,57.02 	"/>
        <polyline class="st0" points="432.64,77.63 387,174.68 415.27,181.23 452.48,101.67 472.45,75.11 447.81,68.57 	"/>
        <polyline class="st0" points="355.75,270.85 332.41,333.92 355.75,351.98 417.73,175.96 387,169.32 	"/>
        <path class="st0" d="M161.69,108.59"/>
        <path class="st0" d="M158.49,99.89"/>
        <polyline class="st0" points="118.12,114.8 90.02,144.37 108.01,149.61 152.05,124.78 139.3,108.59 	"/>
        <path class="st0" d="M454.64,339.07"/>
        <polyline class="st0" points="198.28,355.41 243.98,399.28 161.77,320.05 153.99,373.96 	"/>
        <path class="st0" d="M173.04,333.66"/>
        <polygon class="st0" points="75.16,116.72 140.62,116.72 119.5,154.93 182.52,304.61 159.89,354.59 127.48,339.15 51.82,115.67
		"/>
        <polygon class="st0" points="214.86,371.32 93.6,384.81 106.76,397.71 238.71,396.46 	"/>
        <polygon class="st0" points="249.17,108.59 279.51,108.59 355.49,332.09 287.29,333.66 	"/>
        <polygon class="st0" points="243.98,399.28 148.11,306.44 124.43,399.28 	"/>
        <polygon class="st0" points="256.59,381.56 387.62,381.56 387.62,397.16 257.56,383.13 	"/>
        <polygon class="st0" points="182.52,296.85 117.17,111.23 71.35,124.9 144.66,346.74 	"/>
        <polygon class="st0" points="257.84,380.72 386.87,380.72 392.4,398.21 274.27,399.28 	"/>
</g>
    <polyline class="st0" points="227.11,157.97 161.69,358.39 182.52,374.92 249.17,198.82 "/>
</svg>
